<svg xmlns="http://www.w3.org/2000/svg" xmlns:xlink="http://www.w3.org/1999/xlink" width="500" zoomAndPan="magnify" viewBox="0 0 375 374.999991" height="300" preserveAspectRatio="xMidYMid meet" version="1.0"><defs><g/><clipPath id="d6240e2753"><path d="M 99.632812 162 L 313 162 L 313 182 L 99.632812 182 Z M 99.632812 162 " clip-rule="nonzero"/></clipPath></defs><rect x="-37.5" width="450" fill="#ffffff" y="-37.499999" height="449.999989" fill-opacity="1"/><rect x="-37.5" width="450" fill="#ffffff" y="-37.499999" height="449.999989" fill-opacity="1"/><rect x="-37.5" width="450" fill="#ffffff" y="-37.499999" height="449.999989" fill-opacity="1"/><g fill="#5271ff" fill-opacity="1"><g transform="translate(159.588891, 217.859486)"><g><path d="M 11.5625 -7.75 C 11.5625 -7.425781 11.488281 -7.144531 11.34375 -6.90625 C 11.207031 -6.664062 11.03125 -6.484375 10.8125 -6.359375 C 10.601562 -6.242188 10.390625 -6.1875 10.171875 -6.1875 C 9.953125 -6.1875 9.753906 -6.226562 9.578125 -6.3125 C 9.398438 -6.40625 9.253906 -6.53125 9.140625 -6.6875 L 5.859375 -1.171875 C 5.609375 -0.753906 5.378906 -0.453125 5.171875 -0.265625 C 4.960938 -0.0859375 4.726562 0 4.46875 0 C 4.1875 0 3.960938 -0.09375 3.796875 -0.28125 C 3.628906 -0.46875 3.507812 -0.765625 3.4375 -1.171875 L 2.296875 -7.453125 C 2.265625 -7.609375 2.210938 -7.738281 2.140625 -7.84375 C 2.066406 -7.945312 1.972656 -8.054688 1.859375 -8.171875 C 1.765625 -8.253906 1.703125 -8.316406 1.671875 -8.359375 C 1.640625 -8.410156 1.625 -8.472656 1.625 -8.546875 C 1.570312 -8.878906 1.769531 -9.046875 2.21875 -9.046875 L 5.609375 -9.046875 C 5.816406 -9.046875 5.972656 -9.003906 6.078125 -8.921875 C 6.191406 -8.835938 6.242188 -8.722656 6.234375 -8.578125 C 6.234375 -8.492188 6.21875 -8.425781 6.1875 -8.375 C 6.15625 -8.320312 6.101562 -8.253906 6.03125 -8.171875 C 5.945312 -8.078125 5.882812 -7.988281 5.84375 -7.90625 C 5.800781 -7.832031 5.78125 -7.734375 5.78125 -7.609375 C 5.78125 -7.554688 5.785156 -7.507812 5.796875 -7.46875 L 6.3125 -4.3125 L 8.109375 -7.515625 C 8.429688 -8.097656 8.742188 -8.507812 9.046875 -8.75 C 9.359375 -8.988281 9.738281 -9.109375 10.1875 -9.109375 C 10.613281 -9.109375 10.945312 -8.988281 11.1875 -8.75 C 11.4375 -8.507812 11.5625 -8.175781 11.5625 -7.75 Z M 11.5625 -7.75 "/></g></g></g><g fill="#5271ff" fill-opacity="1"><g transform="translate(169.553135, 217.859486)"><g/></g></g><g fill="#5271ff" fill-opacity="1"><g transform="translate(172.271897, 217.859486)"><g><path d="M 6.03125 -9.046875 C 6.226562 -9.046875 6.378906 -9.015625 6.484375 -8.953125 C 6.585938 -8.898438 6.640625 -8.820312 6.640625 -8.71875 C 6.640625 -8.664062 6.625 -8.601562 6.59375 -8.53125 C 6.5625 -8.46875 6.519531 -8.410156 6.46875 -8.359375 C 6.425781 -8.316406 6.382812 -8.28125 6.34375 -8.25 C 6.300781 -8.226562 6.269531 -8.210938 6.25 -8.203125 C 6.101562 -8.117188 5.984375 -8.023438 5.890625 -7.921875 C 5.804688 -7.828125 5.734375 -7.675781 5.671875 -7.46875 L 4.03125 -1.609375 C 3.988281 -1.484375 3.96875 -1.367188 3.96875 -1.265625 C 3.96875 -1.148438 3.984375 -1.054688 4.015625 -0.984375 C 4.046875 -0.921875 4.09375 -0.847656 4.15625 -0.765625 C 4.238281 -0.640625 4.28125 -0.539062 4.28125 -0.46875 C 4.28125 -0.457031 4.269531 -0.414062 4.25 -0.34375 C 4.21875 -0.21875 4.132812 -0.128906 4 -0.078125 C 3.875 -0.0234375 3.6875 0 3.4375 0 L 0.25 0 C 0.0507812 0 -0.0976562 -0.03125 -0.203125 -0.09375 C -0.304688 -0.15625 -0.359375 -0.242188 -0.359375 -0.359375 C -0.359375 -0.410156 -0.34375 -0.46875 -0.3125 -0.53125 C -0.28125 -0.625 -0.222656 -0.695312 -0.140625 -0.75 C -0.0546875 -0.8125 -0.00390625 -0.847656 0.015625 -0.859375 C 0.160156 -0.953125 0.273438 -1.046875 0.359375 -1.140625 C 0.453125 -1.234375 0.53125 -1.390625 0.59375 -1.609375 L 2.25 -7.46875 C 2.289062 -7.582031 2.3125 -7.691406 2.3125 -7.796875 C 2.3125 -7.898438 2.296875 -7.984375 2.265625 -8.046875 C 2.234375 -8.117188 2.191406 -8.203125 2.140625 -8.296875 C 2.054688 -8.410156 2.015625 -8.503906 2.015625 -8.578125 C 2.015625 -8.609375 2.019531 -8.660156 2.03125 -8.734375 C 2.070312 -8.847656 2.148438 -8.925781 2.265625 -8.96875 C 2.390625 -9.019531 2.582031 -9.046875 2.84375 -9.046875 Z M 6.03125 -9.046875 "/></g></g></g><g fill="#5271ff" fill-opacity="1"><g transform="translate(177.76379, 217.859486)"><g/></g></g><g fill="#5271ff" fill-opacity="1"><g transform="translate(180.482551, 217.859486)"><g><path d="M 4.734375 0.078125 C 3.972656 0.078125 3.285156 -0.0625 2.671875 -0.34375 C 2.066406 -0.625 1.582031 -1.035156 1.21875 -1.578125 C 0.863281 -2.128906 0.6875 -2.796875 0.6875 -3.578125 C 0.6875 -4.117188 0.785156 -4.707031 0.984375 -5.34375 C 1.398438 -6.695312 2.023438 -7.675781 2.859375 -8.28125 C 3.703125 -8.882812 4.609375 -9.1875 5.578125 -9.1875 C 6.085938 -9.1875 6.539062 -9.109375 6.9375 -8.953125 C 7.34375 -8.804688 7.710938 -8.585938 8.046875 -8.296875 L 8.421875 -8.578125 C 8.660156 -8.765625 8.863281 -8.894531 9.03125 -8.96875 C 9.195312 -9.039062 9.382812 -9.078125 9.59375 -9.078125 C 9.820312 -9.078125 10.003906 -9.023438 10.140625 -8.921875 C 10.273438 -8.828125 10.34375 -8.6875 10.34375 -8.5 C 10.34375 -8.394531 10.328125 -8.296875 10.296875 -8.203125 L 9.53125 -6.078125 C 9.445312 -5.828125 9.347656 -5.648438 9.234375 -5.546875 C 9.117188 -5.453125 8.953125 -5.40625 8.734375 -5.40625 C 8.492188 -5.40625 8.296875 -5.488281 8.140625 -5.65625 C 7.992188 -5.820312 7.828125 -6.113281 7.640625 -6.53125 C 7.421875 -6.945312 7.242188 -7.222656 7.109375 -7.359375 C 6.972656 -7.503906 6.773438 -7.578125 6.515625 -7.578125 C 6.140625 -7.578125 5.78125 -7.347656 5.4375 -6.890625 C 5.09375 -6.429688 4.78125 -5.742188 4.5 -4.828125 C 4.257812 -4.054688 4.140625 -3.410156 4.140625 -2.890625 C 4.140625 -2.441406 4.222656 -2.101562 4.390625 -1.875 C 4.566406 -1.65625 4.800781 -1.546875 5.09375 -1.546875 C 5.519531 -1.546875 5.867188 -1.640625 6.140625 -1.828125 C 6.421875 -2.023438 6.707031 -2.285156 7 -2.609375 C 7.175781 -2.804688 7.320312 -2.953125 7.4375 -3.046875 C 7.550781 -3.140625 7.671875 -3.1875 7.796875 -3.1875 C 7.960938 -3.1875 8.132812 -3.101562 8.3125 -2.9375 C 8.5 -2.78125 8.585938 -2.617188 8.578125 -2.453125 C 8.585938 -2.253906 8.425781 -1.945312 8.09375 -1.53125 C 7.757812 -1.113281 7.300781 -0.738281 6.71875 -0.40625 C 6.132812 -0.0820312 5.472656 0.078125 4.734375 0.078125 Z M 4.734375 0.078125 "/></g></g></g><g fill="#5271ff" fill-opacity="1"><g transform="translate(189.889457, 217.859486)"><g/></g></g><g fill="#5271ff" fill-opacity="1"><g transform="translate(192.608218, 217.859486)"><g><path d="M 10.890625 -9.046875 C 11.390625 -9.046875 11.640625 -8.84375 11.640625 -8.4375 C 11.640625 -8.3125 11.609375 -8.15625 11.546875 -7.96875 L 11.234375 -6.859375 C 11.128906 -6.523438 11.003906 -6.289062 10.859375 -6.15625 C 10.710938 -6.019531 10.503906 -5.953125 10.234375 -5.953125 C 10.003906 -5.953125 9.828125 -6.007812 9.703125 -6.125 C 9.585938 -6.25 9.472656 -6.4375 9.359375 -6.6875 L 9.140625 -7.25 C 9.066406 -7.414062 8.988281 -7.53125 8.90625 -7.59375 C 8.820312 -7.65625 8.691406 -7.6875 8.515625 -7.6875 L 8.203125 -7.6875 L 6.484375 -1.625 C 6.453125 -1.5 6.4375 -1.394531 6.4375 -1.3125 C 6.4375 -1.195312 6.453125 -1.101562 6.484375 -1.03125 C 6.515625 -0.957031 6.566406 -0.878906 6.640625 -0.796875 C 6.710938 -0.671875 6.75 -0.566406 6.75 -0.484375 C 6.75 -0.472656 6.742188 -0.429688 6.734375 -0.359375 C 6.679688 -0.234375 6.585938 -0.144531 6.453125 -0.09375 C 6.328125 -0.0390625 6.144531 -0.015625 5.90625 -0.015625 L 2.703125 -0.015625 C 2.515625 -0.015625 2.367188 -0.046875 2.265625 -0.109375 C 2.160156 -0.171875 2.109375 -0.257812 2.109375 -0.375 C 2.109375 -0.4375 2.117188 -0.492188 2.140625 -0.546875 C 2.179688 -0.628906 2.226562 -0.6875 2.28125 -0.71875 C 2.332031 -0.757812 2.40625 -0.816406 2.5 -0.890625 C 2.632812 -0.960938 2.75 -1.050781 2.84375 -1.15625 C 2.9375 -1.257812 3.015625 -1.414062 3.078125 -1.625 L 4.78125 -7.6875 L 4.46875 -7.6875 C 4.269531 -7.6875 4.109375 -7.65625 3.984375 -7.59375 C 3.859375 -7.53125 3.722656 -7.414062 3.578125 -7.25 L 3.125 -6.6875 C 2.914062 -6.445312 2.710938 -6.265625 2.515625 -6.140625 C 2.328125 -6.015625 2.117188 -5.953125 1.890625 -5.953125 C 1.679688 -5.953125 1.515625 -6.003906 1.390625 -6.109375 C 1.273438 -6.222656 1.21875 -6.375 1.21875 -6.5625 C 1.21875 -6.65625 1.234375 -6.753906 1.265625 -6.859375 L 1.625 -8.109375 C 1.6875 -8.359375 1.765625 -8.546875 1.859375 -8.671875 C 1.953125 -8.804688 2.082031 -8.898438 2.25 -8.953125 C 2.414062 -9.015625 2.65625 -9.046875 2.96875 -9.046875 Z M 10.890625 -9.046875 "/></g></g></g><g fill="#5271ff" fill-opacity="1"><g transform="translate(202.925902, 217.859486)"><g/></g></g><g fill="#5271ff" fill-opacity="1"><g transform="translate(205.644663, 217.859486)"><g><path d="M 6.625 -9.25 C 7.757812 -9.25 8.648438 -8.976562 9.296875 -8.4375 C 9.941406 -7.90625 10.265625 -7.128906 10.265625 -6.109375 C 10.265625 -5.628906 10.191406 -5.113281 10.046875 -4.5625 C 9.773438 -3.550781 9.351562 -2.691406 8.78125 -1.984375 C 8.207031 -1.273438 7.523438 -0.738281 6.734375 -0.375 C 5.953125 -0.0195312 5.097656 0.15625 4.171875 0.15625 C 3.035156 0.15625 2.144531 -0.109375 1.5 -0.640625 C 0.863281 -1.179688 0.546875 -1.960938 0.546875 -2.984375 C 0.546875 -3.441406 0.625 -3.96875 0.78125 -4.5625 C 1.039062 -5.570312 1.453125 -6.425781 2.015625 -7.125 C 2.585938 -7.832031 3.265625 -8.363281 4.046875 -8.71875 C 4.828125 -9.070312 5.6875 -9.25 6.625 -9.25 Z M 6.375 -7.921875 C 6.101562 -7.921875 5.859375 -7.8125 5.640625 -7.59375 C 5.421875 -7.375 5.203125 -7.019531 4.984375 -6.53125 C 4.773438 -6.039062 4.550781 -5.351562 4.3125 -4.46875 C 3.945312 -3.195312 3.765625 -2.320312 3.765625 -1.84375 C 3.765625 -1.5625 3.8125 -1.359375 3.90625 -1.234375 C 4.007812 -1.109375 4.171875 -1.046875 4.390625 -1.046875 C 4.660156 -1.046875 4.90625 -1.15625 5.125 -1.375 C 5.34375 -1.601562 5.554688 -1.960938 5.765625 -2.453125 C 5.972656 -2.941406 6.203125 -3.613281 6.453125 -4.46875 C 6.804688 -5.71875 6.984375 -6.597656 6.984375 -7.109375 C 6.984375 -7.398438 6.929688 -7.609375 6.828125 -7.734375 C 6.734375 -7.859375 6.582031 -7.921875 6.375 -7.921875 Z M 6.375 -7.921875 "/></g></g></g><g fill="#5271ff" fill-opacity="1"><g transform="translate(215.608907, 217.859486)"><g/></g></g><g fill="#5271ff" fill-opacity="1"><g transform="translate(218.327668, 217.859486)"><g><path d="M 10.390625 -6.296875 C 10.242188 -5.765625 9.96875 -5.351562 9.5625 -5.0625 C 9.164062 -4.769531 8.664062 -4.585938 8.0625 -4.515625 C 8.5 -4.472656 8.820312 -4.34375 9.03125 -4.125 C 9.25 -3.914062 9.359375 -3.632812 9.359375 -3.28125 C 9.359375 -3.144531 9.335938 -2.972656 9.296875 -2.765625 L 9.15625 -2.109375 C 9.132812 -2.015625 9.125 -1.953125 9.125 -1.921875 C 9.125 -1.796875 9.148438 -1.703125 9.203125 -1.640625 C 9.253906 -1.585938 9.332031 -1.5625 9.4375 -1.5625 C 9.625 -1.5625 9.757812 -1.535156 9.84375 -1.484375 C 9.9375 -1.429688 9.96875 -1.332031 9.9375 -1.1875 C 9.894531 -0.976562 9.785156 -0.769531 9.609375 -0.5625 C 9.429688 -0.363281 9.175781 -0.195312 8.84375 -0.0625 C 8.507812 0.0625 8.109375 0.125 7.640625 0.125 C 7.046875 0.125 6.570312 -0.00390625 6.21875 -0.265625 C 5.863281 -0.535156 5.6875 -0.921875 5.6875 -1.421875 C 5.6875 -1.617188 5.710938 -1.820312 5.765625 -2.03125 L 5.984375 -2.90625 C 6.015625 -3.019531 6.03125 -3.144531 6.03125 -3.28125 C 6.03125 -3.488281 5.957031 -3.632812 5.8125 -3.71875 C 5.675781 -3.8125 5.457031 -3.859375 5.15625 -3.859375 L 4.640625 -3.859375 L 4.015625 -1.609375 C 3.992188 -1.546875 3.984375 -1.476562 3.984375 -1.40625 C 3.984375 -1.269531 4.015625 -1.15625 4.078125 -1.0625 C 4.140625 -0.976562 4.226562 -0.882812 4.34375 -0.78125 C 4.414062 -0.71875 4.472656 -0.65625 4.515625 -0.59375 C 4.566406 -0.539062 4.59375 -0.484375 4.59375 -0.421875 C 4.59375 -0.265625 4.519531 -0.15625 4.375 -0.09375 C 4.226562 -0.03125 4.015625 0 3.734375 0 L 0.328125 0 C 0.0859375 0 -0.0859375 -0.0390625 -0.203125 -0.125 C -0.316406 -0.21875 -0.359375 -0.335938 -0.328125 -0.484375 C -0.304688 -0.566406 -0.269531 -0.632812 -0.21875 -0.6875 C -0.175781 -0.738281 -0.101562 -0.796875 0 -0.859375 C 0.15625 -0.953125 0.273438 -1.046875 0.359375 -1.140625 C 0.453125 -1.242188 0.523438 -1.398438 0.578125 -1.609375 L 2.25 -7.46875 C 2.28125 -7.582031 2.296875 -7.691406 2.296875 -7.796875 C 2.296875 -7.898438 2.28125 -7.984375 2.25 -8.046875 C 2.21875 -8.117188 2.175781 -8.203125 2.125 -8.296875 C 2.039062 -8.410156 2 -8.503906 2 -8.578125 C 2 -8.609375 2.007812 -8.660156 2.03125 -8.734375 C 2.0625 -8.847656 2.140625 -8.925781 2.265625 -8.96875 C 2.390625 -9.019531 2.578125 -9.046875 2.828125 -9.046875 L 7.375 -9.046875 C 8 -9.046875 8.546875 -8.953125 9.015625 -8.765625 C 9.484375 -8.578125 9.84375 -8.316406 10.09375 -7.984375 C 10.34375 -7.648438 10.46875 -7.273438 10.46875 -6.859375 C 10.46875 -6.671875 10.441406 -6.484375 10.390625 -6.296875 Z M 6.90625 -6.4375 C 6.945312 -6.644531 6.96875 -6.800781 6.96875 -6.90625 C 6.96875 -7.382812 6.707031 -7.625 6.1875 -7.625 L 5.609375 -7.625 L 5.015625 -5.21875 L 5.59375 -5.21875 C 5.9375 -5.21875 6.210938 -5.300781 6.421875 -5.46875 C 6.628906 -5.644531 6.789062 -5.96875 6.90625 -6.4375 Z M 6.90625 -6.4375 "/></g></g></g><g fill="#5271ff" fill-opacity="1"><g transform="translate(228.635762, 217.859486)"><g/></g></g><g fill="#5271ff" fill-opacity="1"><g transform="translate(231.354523, 217.859486)"><g/></g></g><g fill="#5271ff" fill-opacity="1"><g transform="translate(234.073261, 217.859486)"><g><path d="M 8.3125 -1.609375 C 8.269531 -1.484375 8.25 -1.363281 8.25 -1.25 C 8.25 -1.144531 8.257812 -1.054688 8.28125 -0.984375 C 8.3125 -0.921875 8.34375 -0.867188 8.375 -0.828125 C 8.40625 -0.796875 8.425781 -0.769531 8.4375 -0.75 C 8.53125 -0.65625 8.578125 -0.5625 8.578125 -0.46875 C 8.578125 -0.457031 8.566406 -0.414062 8.546875 -0.34375 C 8.515625 -0.21875 8.4375 -0.128906 8.3125 -0.078125 C 8.1875 -0.0234375 8 0 7.75 0 L 4.53125 0 C 4.332031 0 4.179688 -0.03125 4.078125 -0.09375 C 3.972656 -0.15625 3.921875 -0.242188 3.921875 -0.359375 C 3.921875 -0.410156 3.9375 -0.46875 3.96875 -0.53125 C 4 -0.601562 4.035156 -0.660156 4.078125 -0.703125 C 4.128906 -0.742188 4.203125 -0.789062 4.296875 -0.84375 C 4.441406 -0.925781 4.554688 -1.015625 4.640625 -1.109375 C 4.734375 -1.210938 4.8125 -1.378906 4.875 -1.609375 L 5.234375 -2.765625 L 3.109375 -2.765625 L 2.75 -2 C 2.59375 -1.664062 2.515625 -1.398438 2.515625 -1.203125 C 2.515625 -1.097656 2.53125 -1.007812 2.5625 -0.9375 C 2.601562 -0.875 2.660156 -0.804688 2.734375 -0.734375 C 2.796875 -0.660156 2.835938 -0.597656 2.859375 -0.546875 C 2.878906 -0.492188 2.882812 -0.429688 2.875 -0.359375 C 2.832031 -0.222656 2.753906 -0.128906 2.640625 -0.078125 C 2.523438 -0.0234375 2.347656 0 2.109375 0 L 0.078125 0 C -0.128906 0 -0.285156 -0.0351562 -0.390625 -0.109375 C -0.503906 -0.191406 -0.5625 -0.296875 -0.5625 -0.421875 C -0.5625 -0.566406 -0.507812 -0.679688 -0.40625 -0.765625 C -0.300781 -0.847656 -0.144531 -0.941406 0.0625 -1.046875 C 0.332031 -1.179688 0.550781 -1.3125 0.71875 -1.4375 C 0.882812 -1.570312 1.023438 -1.757812 1.140625 -2 L 3.5625 -7.015625 C 3.9375 -7.796875 4.375 -8.359375 4.875 -8.703125 C 5.375 -9.054688 6.035156 -9.234375 6.859375 -9.234375 C 7.785156 -9.234375 8.503906 -9.046875 9.015625 -8.671875 C 9.523438 -8.296875 9.78125 -7.769531 9.78125 -7.09375 C 9.78125 -6.8125 9.734375 -6.519531 9.640625 -6.21875 Z M 5.640625 -4.125 L 6.359375 -6.53125 C 6.398438 -6.632812 6.421875 -6.742188 6.421875 -6.859375 C 6.421875 -7.035156 6.367188 -7.164062 6.265625 -7.25 C 6.171875 -7.332031 6.039062 -7.375 5.875 -7.375 C 5.65625 -7.375 5.46875 -7.3125 5.3125 -7.1875 C 5.15625 -7.0625 5.003906 -6.835938 4.859375 -6.515625 L 3.734375 -4.125 Z M 5.640625 -4.125 "/></g></g></g><g fill="#5271ff" fill-opacity="1"><g transform="translate(243.561729, 217.859486)"><g/></g></g><g fill="#5271ff" fill-opacity="1"><g transform="translate(246.28049, 217.859486)"><g><path d="M 4.765625 -7.34375 C 4.785156 -7.394531 4.796875 -7.46875 4.796875 -7.5625 C 4.796875 -7.707031 4.753906 -7.820312 4.671875 -7.90625 C 4.597656 -8 4.484375 -8.097656 4.328125 -8.203125 C 4.191406 -8.304688 4.09375 -8.394531 4.03125 -8.46875 C 3.96875 -8.539062 3.953125 -8.628906 3.984375 -8.734375 C 4.015625 -8.859375 4.082031 -8.941406 4.1875 -8.984375 C 4.289062 -9.023438 4.460938 -9.046875 4.703125 -9.046875 L 8.5625 -9.046875 C 8.75 -9.046875 8.894531 -9.015625 9 -8.953125 C 9.101562 -8.890625 9.15625 -8.8125 9.15625 -8.71875 C 9.15625 -8.664062 9.144531 -8.601562 9.125 -8.53125 C 9.09375 -8.46875 9.050781 -8.410156 9 -8.359375 C 8.957031 -8.316406 8.914062 -8.28125 8.875 -8.25 C 8.832031 -8.226562 8.800781 -8.210938 8.78125 -8.203125 C 8.632812 -8.117188 8.515625 -8.023438 8.421875 -7.921875 C 8.335938 -7.828125 8.265625 -7.675781 8.203125 -7.46875 L 6.859375 -2.765625 C 6.585938 -1.796875 6.125 -1.078125 5.46875 -0.609375 C 4.820312 -0.148438 3.976562 0.078125 2.9375 0.078125 C 2.238281 0.078125 1.644531 -0.0195312 1.15625 -0.21875 C 0.675781 -0.425781 0.3125 -0.703125 0.0625 -1.046875 C -0.175781 -1.390625 -0.296875 -1.765625 -0.296875 -2.171875 C -0.296875 -2.367188 -0.269531 -2.566406 -0.21875 -2.765625 C -0.101562 -3.171875 0.09375 -3.476562 0.375 -3.6875 C 0.664062 -3.894531 0.988281 -4 1.34375 -4 C 1.75 -4 2.0625 -3.875 2.28125 -3.625 C 2.5 -3.382812 2.609375 -3.070312 2.609375 -2.6875 C 2.609375 -2.5 2.582031 -2.3125 2.53125 -2.125 C 2.414062 -1.738281 2.210938 -1.457031 1.921875 -1.28125 C 2.066406 -1.1875 2.234375 -1.140625 2.421875 -1.140625 C 2.609375 -1.140625 2.773438 -1.234375 2.921875 -1.421875 C 3.066406 -1.617188 3.191406 -1.890625 3.296875 -2.234375 Z M 4.765625 -7.34375 "/></g></g></g><g fill="#5271ff" fill-opacity="1"><g transform="translate(254.30083, 217.859486)"><g/></g></g><g fill="#5271ff" fill-opacity="1"><g transform="translate(257.019591, 217.859486)"><g><path d="M 8.3125 -1.609375 C 8.269531 -1.484375 8.25 -1.363281 8.25 -1.25 C 8.25 -1.144531 8.257812 -1.054688 8.28125 -0.984375 C 8.3125 -0.921875 8.34375 -0.867188 8.375 -0.828125 C 8.40625 -0.796875 8.425781 -0.769531 8.4375 -0.75 C 8.53125 -0.65625 8.578125 -0.5625 8.578125 -0.46875 C 8.578125 -0.457031 8.566406 -0.414062 8.546875 -0.34375 C 8.515625 -0.21875 8.4375 -0.128906 8.3125 -0.078125 C 8.1875 -0.0234375 8 0 7.75 0 L 4.53125 0 C 4.332031 0 4.179688 -0.03125 4.078125 -0.09375 C 3.972656 -0.15625 3.921875 -0.242188 3.921875 -0.359375 C 3.921875 -0.410156 3.9375 -0.46875 3.96875 -0.53125 C 4 -0.601562 4.035156 -0.660156 4.078125 -0.703125 C 4.128906 -0.742188 4.203125 -0.789062 4.296875 -0.84375 C 4.441406 -0.925781 4.554688 -1.015625 4.640625 -1.109375 C 4.734375 -1.210938 4.8125 -1.378906 4.875 -1.609375 L 5.234375 -2.765625 L 3.109375 -2.765625 L 2.75 -2 C 2.59375 -1.664062 2.515625 -1.398438 2.515625 -1.203125 C 2.515625 -1.097656 2.53125 -1.007812 2.5625 -0.9375 C 2.601562 -0.875 2.660156 -0.804688 2.734375 -0.734375 C 2.796875 -0.660156 2.835938 -0.597656 2.859375 -0.546875 C 2.878906 -0.492188 2.882812 -0.429688 2.875 -0.359375 C 2.832031 -0.222656 2.753906 -0.128906 2.640625 -0.078125 C 2.523438 -0.0234375 2.347656 0 2.109375 0 L 0.078125 0 C -0.128906 0 -0.285156 -0.0351562 -0.390625 -0.109375 C -0.503906 -0.191406 -0.5625 -0.296875 -0.5625 -0.421875 C -0.5625 -0.566406 -0.507812 -0.679688 -0.40625 -0.765625 C -0.300781 -0.847656 -0.144531 -0.941406 0.0625 -1.046875 C 0.332031 -1.179688 0.550781 -1.3125 0.71875 -1.4375 C 0.882812 -1.570312 1.023438 -1.757812 1.140625 -2 L 3.5625 -7.015625 C 3.9375 -7.796875 4.375 -8.359375 4.875 -8.703125 C 5.375 -9.054688 6.035156 -9.234375 6.859375 -9.234375 C 7.785156 -9.234375 8.503906 -9.046875 9.015625 -8.671875 C 9.523438 -8.296875 9.78125 -7.769531 9.78125 -7.09375 C 9.78125 -6.8125 9.734375 -6.519531 9.640625 -6.21875 Z M 5.640625 -4.125 L 6.359375 -6.53125 C 6.398438 -6.632812 6.421875 -6.742188 6.421875 -6.859375 C 6.421875 -7.035156 6.367188 -7.164062 6.265625 -7.25 C 6.171875 -7.332031 6.039062 -7.375 5.875 -7.375 C 5.65625 -7.375 5.46875 -7.3125 5.3125 -7.1875 C 5.15625 -7.0625 5.003906 -6.835938 4.859375 -6.515625 L 3.734375 -4.125 Z M 5.640625 -4.125 "/></g></g></g><g fill="#5271ff" fill-opacity="1"><g transform="translate(266.508058, 217.859486)"><g/></g></g><g fill="#5271ff" fill-opacity="1"><g transform="translate(269.22682, 217.859486)"><g><path d="M 10.84375 -9.109375 C 11.25 -9.109375 11.578125 -8.976562 11.828125 -8.71875 C 12.078125 -8.457031 12.203125 -8.128906 12.203125 -7.734375 C 12.203125 -7.679688 12.195312 -7.582031 12.1875 -7.4375 C 12.113281 -7 11.941406 -6.675781 11.671875 -6.46875 C 11.398438 -6.257812 11.085938 -6.15625 10.734375 -6.15625 C 10.503906 -6.15625 10.304688 -6.191406 10.140625 -6.265625 C 9.972656 -6.335938 9.816406 -6.460938 9.671875 -6.640625 L 7.4375 -3.71875 L 6.8125 -1.609375 C 6.789062 -1.546875 6.78125 -1.472656 6.78125 -1.390625 C 6.78125 -1.265625 6.8125 -1.15625 6.875 -1.0625 C 6.9375 -0.976562 7.03125 -0.882812 7.15625 -0.78125 C 7.25 -0.695312 7.316406 -0.625 7.359375 -0.5625 C 7.410156 -0.5 7.421875 -0.425781 7.390625 -0.34375 C 7.359375 -0.21875 7.269531 -0.128906 7.125 -0.078125 C 6.988281 -0.0234375 6.796875 0 6.546875 0 L 3.125 0 C 2.882812 0 2.707031 -0.0390625 2.59375 -0.125 C 2.488281 -0.21875 2.453125 -0.335938 2.484375 -0.484375 C 2.503906 -0.566406 2.539062 -0.632812 2.59375 -0.6875 C 2.644531 -0.738281 2.722656 -0.800781 2.828125 -0.875 C 2.960938 -0.957031 3.070312 -1.050781 3.15625 -1.15625 C 3.25 -1.257812 3.328125 -1.410156 3.390625 -1.609375 L 4.03125 -3.71875 L 2.765625 -7.28125 C 2.679688 -7.550781 2.578125 -7.753906 2.453125 -7.890625 C 2.328125 -8.035156 2.1875 -8.175781 2.03125 -8.3125 C 1.925781 -8.382812 1.847656 -8.445312 1.796875 -8.5 C 1.753906 -8.550781 1.734375 -8.613281 1.734375 -8.6875 C 1.734375 -8.789062 1.78125 -8.875 1.875 -8.9375 C 1.976562 -9.007812 2.117188 -9.046875 2.296875 -9.046875 L 5.921875 -9.046875 C 6.242188 -9.046875 6.460938 -9.019531 6.578125 -8.96875 C 6.691406 -8.914062 6.753906 -8.820312 6.765625 -8.6875 C 6.765625 -8.601562 6.742188 -8.53125 6.703125 -8.46875 C 6.671875 -8.414062 6.617188 -8.347656 6.546875 -8.265625 C 6.472656 -8.160156 6.414062 -8.070312 6.375 -8 C 6.332031 -7.925781 6.3125 -7.84375 6.3125 -7.75 C 6.3125 -7.71875 6.316406 -7.660156 6.328125 -7.578125 L 6.953125 -5.171875 L 8.6875 -7.640625 C 9.0625 -8.160156 9.410156 -8.535156 9.734375 -8.765625 C 10.066406 -8.992188 10.4375 -9.109375 10.84375 -9.109375 Z M 10.84375 -9.109375 "/></g></g></g><g fill="#5271ff" fill-opacity="1"><g transform="translate(279.952325, 217.859486)"><g/></g></g><g fill="#5271ff" fill-opacity="1"><g transform="translate(282.671086, 217.859486)"><g><path d="M 6.03125 -9.046875 C 6.226562 -9.046875 6.378906 -9.015625 6.484375 -8.953125 C 6.585938 -8.898438 6.640625 -8.820312 6.640625 -8.71875 C 6.640625 -8.664062 6.625 -8.601562 6.59375 -8.53125 C 6.5625 -8.46875 6.519531 -8.410156 6.46875 -8.359375 C 6.425781 -8.316406 6.382812 -8.28125 6.34375 -8.25 C 6.300781 -8.226562 6.269531 -8.210938 6.25 -8.203125 C 6.101562 -8.117188 5.984375 -8.023438 5.890625 -7.921875 C 5.804688 -7.828125 5.734375 -7.675781 5.671875 -7.46875 L 4.03125 -1.609375 C 3.988281 -1.484375 3.96875 -1.367188 3.96875 -1.265625 C 3.96875 -1.148438 3.984375 -1.054688 4.015625 -0.984375 C 4.046875 -0.921875 4.09375 -0.847656 4.15625 -0.765625 C 4.238281 -0.640625 4.28125 -0.539062 4.28125 -0.46875 C 4.28125 -0.457031 4.269531 -0.414062 4.25 -0.34375 C 4.21875 -0.21875 4.132812 -0.128906 4 -0.078125 C 3.875 -0.0234375 3.6875 0 3.4375 0 L 0.25 0 C 0.0507812 0 -0.0976562 -0.03125 -0.203125 -0.09375 C -0.304688 -0.15625 -0.359375 -0.242188 -0.359375 -0.359375 C -0.359375 -0.410156 -0.34375 -0.46875 -0.3125 -0.53125 C -0.28125 -0.625 -0.222656 -0.695312 -0.140625 -0.75 C -0.0546875 -0.8125 -0.00390625 -0.847656 0.015625 -0.859375 C 0.160156 -0.953125 0.273438 -1.046875 0.359375 -1.140625 C 0.453125 -1.234375 0.53125 -1.390625 0.59375 -1.609375 L 2.25 -7.46875 C 2.289062 -7.582031 2.3125 -7.691406 2.3125 -7.796875 C 2.3125 -7.898438 2.296875 -7.984375 2.265625 -8.046875 C 2.234375 -8.117188 2.191406 -8.203125 2.140625 -8.296875 C 2.054688 -8.410156 2.015625 -8.503906 2.015625 -8.578125 C 2.015625 -8.609375 2.019531 -8.660156 2.03125 -8.734375 C 2.070312 -8.847656 2.148438 -8.925781 2.265625 -8.96875 C 2.390625 -9.019531 2.582031 -9.046875 2.84375 -9.046875 Z M 6.03125 -9.046875 "/></g></g></g><g fill="#5271ff" fill-opacity="1"><g transform="translate(288.155289, 217.859486)"><g/></g></g><g fill="#5271ff" fill-opacity="1"><g transform="translate(290.87405, 217.859486)"><g/></g></g><g fill="#5271ff" fill-opacity="1"><g transform="translate(293.592812, 217.859486)"><g/></g></g><g fill="#5271ff" fill-opacity="1"><g transform="translate(296.311538, 217.859486)"><g><path d="M 6.625 -9.25 C 7.757812 -9.25 8.648438 -8.976562 9.296875 -8.4375 C 9.941406 -7.90625 10.265625 -7.128906 10.265625 -6.109375 C 10.265625 -5.628906 10.191406 -5.113281 10.046875 -4.5625 C 9.773438 -3.550781 9.351562 -2.691406 8.78125 -1.984375 C 8.207031 -1.273438 7.523438 -0.738281 6.734375 -0.375 C 5.953125 -0.0195312 5.097656 0.15625 4.171875 0.15625 C 3.035156 0.15625 2.144531 -0.109375 1.5 -0.640625 C 0.863281 -1.179688 0.546875 -1.960938 0.546875 -2.984375 C 0.546875 -3.441406 0.625 -3.96875 0.78125 -4.5625 C 1.039062 -5.570312 1.453125 -6.425781 2.015625 -7.125 C 2.585938 -7.832031 3.265625 -8.363281 4.046875 -8.71875 C 4.828125 -9.070312 5.6875 -9.25 6.625 -9.25 Z M 6.375 -7.921875 C 6.101562 -7.921875 5.859375 -7.8125 5.640625 -7.59375 C 5.421875 -7.375 5.203125 -7.019531 4.984375 -6.53125 C 4.773438 -6.039062 4.550781 -5.351562 4.3125 -4.46875 C 3.945312 -3.195312 3.765625 -2.320312 3.765625 -1.84375 C 3.765625 -1.5625 3.8125 -1.359375 3.90625 -1.234375 C 4.007812 -1.109375 4.171875 -1.046875 4.390625 -1.046875 C 4.660156 -1.046875 4.90625 -1.15625 5.125 -1.375 C 5.34375 -1.601562 5.554688 -1.960938 5.765625 -2.453125 C 5.972656 -2.941406 6.203125 -3.613281 6.453125 -4.46875 C 6.804688 -5.71875 6.984375 -6.597656 6.984375 -7.109375 C 6.984375 -7.398438 6.929688 -7.609375 6.828125 -7.734375 C 6.734375 -7.859375 6.582031 -7.921875 6.375 -7.921875 Z M 6.375 -7.921875 "/></g></g></g><g fill="#5271ff" fill-opacity="1"><g transform="translate(306.275783, 217.859486)"><g><path d="M 1.625 -2.75 C 1.976562 -2.75 2.28125 -2.625 2.53125 -2.375 C 2.78125 -2.132812 2.90625 -1.835938 2.90625 -1.484375 C 2.90625 -1.234375 2.835938 -0.988281 2.703125 -0.75 C 2.578125 -0.519531 2.398438 -0.328125 2.171875 -0.171875 C 1.941406 -0.0234375 1.679688 0.046875 1.390625 0.046875 C 1.035156 0.046875 0.734375 -0.0703125 0.484375 -0.3125 C 0.242188 -0.5625 0.117188 -0.863281 0.109375 -1.21875 C 0.109375 -1.46875 0.171875 -1.707031 0.296875 -1.9375 C 0.421875 -2.175781 0.597656 -2.367188 0.828125 -2.515625 C 1.066406 -2.671875 1.332031 -2.75 1.625 -2.75 Z M 1.625 -2.75 "/></g></g></g><g fill="#5271ff" fill-opacity="1"><g transform="translate(310.303725, 217.859486)"><g/></g></g><g clip-path="url(#d6240e2753)"><path fill="#5271ff" d="M 101.035156 173.488281 C 100.445312 174.390625 99.652344 173.679688 100.160156 172.886719 C 118.898438 143.726562 130.652344 183.285156 168.320312 179.964844 C 226.324219 174.851562 274.808594 158.53125 310.898438 172.582031 C 313.414062 173.5625 311.644531 175.617188 309.523438 174.660156 C 279.488281 161.058594 223.691406 175.300781 168.070312 181.070312 C 130.382812 184.976562 119.730469 144.804688 101.035156 173.488281 Z M 101.035156 173.488281 " fill-opacity="1" fill-rule="nonzero"/></g><g fill="#5271ff" fill-opacity="1"><g transform="translate(58.95115, 196.735475)"><g><path d="M 26.78125 -37.453125 C 31.40625 -37.453125 35.019531 -36.359375 37.625 -34.171875 C 40.226562 -31.992188 41.53125 -28.851562 41.53125 -24.75 C 41.53125 -22.800781 41.234375 -20.710938 40.640625 -18.484375 C 39.546875 -14.367188 37.84375 -10.878906 35.53125 -8.015625 C 33.21875 -5.160156 30.46875 -3 27.28125 -1.53125 C 24.09375 -0.0703125 20.628906 0.65625 16.890625 0.65625 C 12.304688 0.65625 8.710938 -0.429688 6.109375 -2.609375 C 3.503906 -4.796875 2.203125 -7.941406 2.203125 -12.046875 C 2.203125 -13.910156 2.515625 -16.054688 3.140625 -18.484375 C 4.203125 -22.546875 5.878906 -26 8.171875 -28.84375 C 10.460938 -31.6875 13.191406 -33.832031 16.359375 -35.28125 C 19.535156 -36.726562 23.007812 -37.453125 26.78125 -37.453125 Z M 25.796875 -32.0625 C 24.691406 -32.0625 23.695312 -31.617188 22.8125 -30.734375 C 21.9375 -29.859375 21.066406 -28.421875 20.203125 -26.421875 C 19.347656 -24.429688 18.425781 -21.65625 17.4375 -18.09375 C 15.96875 -12.957031 15.234375 -9.421875 15.234375 -7.484375 C 15.234375 -6.347656 15.429688 -5.519531 15.828125 -5 C 16.234375 -4.488281 16.878906 -4.234375 17.765625 -4.234375 C 18.867188 -4.234375 19.859375 -4.679688 20.734375 -5.578125 C 21.617188 -6.484375 22.476562 -7.925781 23.3125 -9.90625 C 24.15625 -11.882812 25.09375 -14.613281 26.125 -18.09375 C 27.550781 -23.15625 28.265625 -26.710938 28.265625 -28.765625 C 28.265625 -29.941406 28.0625 -30.785156 27.65625 -31.296875 C 27.257812 -31.804688 26.640625 -32.0625 25.796875 -32.0625 Z M 25.796875 -32.0625 "/></g></g></g><g fill="#5271ff" fill-opacity="1"><g transform="translate(99.263224, 196.735475)"><g><path d="M 26.84375 -29.09375 C 28.78125 -29.09375 30.390625 -28.394531 31.671875 -27 C 32.960938 -25.613281 33.609375 -23.707031 33.609375 -21.28125 C 33.609375 -18.019531 32.46875 -14.679688 30.1875 -11.265625 C 27.914062 -7.859375 25.035156 -5.046875 21.546875 -2.828125 C 18.066406 -0.609375 14.679688 0.5 11.390625 0.5 C 8.234375 0.5 5.671875 -0.140625 3.703125 -1.421875 C 1.742188 -2.710938 0.765625 -4.550781 0.765625 -6.9375 C 0.765625 -7.8125 0.929688 -8.800781 1.265625 -9.90625 L 4.734375 -21.71875 C 4.804688 -22.019531 4.84375 -22.242188 4.84375 -22.390625 C 4.84375 -22.753906 4.75 -23.0625 4.5625 -23.3125 C 4.382812 -23.570312 4.128906 -23.847656 3.796875 -24.140625 C 3.242188 -24.617188 2.96875 -25.039062 2.96875 -25.40625 C 2.9375 -25.925781 3.25 -26.476562 3.90625 -27.0625 C 4.5625 -27.644531 5.484375 -28.128906 6.671875 -28.515625 C 7.867188 -28.898438 9.21875 -29.09375 10.71875 -29.09375 C 13.175781 -29.09375 15.09375 -28.492188 16.46875 -27.296875 C 17.84375 -26.109375 18.53125 -24.5625 18.53125 -22.65625 C 18.53125 -21.8125 18.382812 -20.894531 18.09375 -19.90625 L 14.515625 -8.140625 C 14.410156 -7.804688 14.359375 -7.53125 14.359375 -7.3125 C 14.359375 -6.832031 14.519531 -6.460938 14.84375 -6.203125 C 15.175781 -5.953125 15.632812 -5.828125 16.21875 -5.828125 C 17.03125 -5.828125 17.976562 -6.179688 19.0625 -6.890625 C 20.144531 -7.609375 21.21875 -8.632812 22.28125 -9.96875 C 23.34375 -11.3125 24.203125 -12.898438 24.859375 -14.734375 C 23.390625 -16.023438 22.351562 -17.289062 21.75 -18.53125 C 21.144531 -19.78125 20.84375 -21.066406 20.84375 -22.390625 C 20.84375 -24.253906 21.351562 -25.835938 22.375 -27.140625 C 23.40625 -28.441406 24.894531 -29.09375 26.84375 -29.09375 Z M 26.84375 -29.09375 "/></g></g></g><g fill="#5271ff" fill-opacity="1"><g transform="translate(132.205829, 196.735475)"><g><path d="M 19.640625 -29.09375 C 23.847656 -29.09375 27.21875 -28.3125 29.75 -26.75 C 32.28125 -25.195312 33.546875 -22.828125 33.546875 -19.640625 C 33.546875 -18.421875 33.328125 -17.046875 32.890625 -15.515625 L 30.640625 -7.921875 C 30.597656 -7.773438 30.578125 -7.59375 30.578125 -7.375 C 30.578125 -6.78125 30.816406 -6.484375 31.296875 -6.484375 C 31.734375 -6.484375 32.109375 -6.675781 32.421875 -7.0625 C 32.734375 -7.445312 32.945312 -7.640625 33.0625 -7.640625 C 33.238281 -7.640625 33.390625 -7.507812 33.515625 -7.25 C 33.648438 -7 33.71875 -6.707031 33.71875 -6.375 C 33.75 -5.382812 33.367188 -4.375 32.578125 -3.34375 C 31.796875 -2.320312 30.742188 -1.476562 29.421875 -0.8125 C 28.097656 -0.15625 26.648438 0.171875 25.078125 0.171875 C 23.171875 0.171875 21.539062 -0.175781 20.1875 -0.875 C 18.832031 -1.570312 17.894531 -2.597656 17.375 -3.953125 C 16.28125 -2.640625 14.976562 -1.625 13.46875 -0.90625 C 11.96875 -0.1875 10.359375 0.171875 8.640625 0.171875 C 6.691406 0.171875 5.054688 -0.203125 3.734375 -0.953125 C 2.421875 -1.710938 1.441406 -2.6875 0.796875 -3.875 C 0.148438 -5.070312 -0.171875 -6.328125 -0.171875 -7.640625 C -0.171875 -8.234375 -0.113281 -8.800781 0 -9.34375 C 0.582031 -11.875 1.851562 -13.78125 3.8125 -15.0625 C 5.78125 -16.351562 8.117188 -17 10.828125 -17 C 13.878906 -17 16.867188 -16.519531 19.796875 -15.5625 L 21.171875 -19.1875 C 21.648438 -20.726562 21.890625 -21.921875 21.890625 -22.765625 C 21.847656 -23.648438 21.550781 -24.3125 21 -24.75 C 20.457031 -25.1875 19.617188 -25.40625 18.484375 -25.40625 C 18.703125 -24.820312 18.8125 -24.21875 18.8125 -23.59375 C 18.8125 -22.238281 18.296875 -21.066406 17.265625 -20.078125 C 16.242188 -19.085938 14.78125 -18.59375 12.875 -18.59375 C 11.070312 -18.59375 9.664062 -18.984375 8.65625 -19.765625 C 7.65625 -20.554688 7.15625 -21.539062 7.15625 -22.71875 C 7.15625 -24.550781 8.179688 -26.070312 10.234375 -27.28125 C 12.285156 -28.488281 15.421875 -29.09375 19.640625 -29.09375 Z M 16.5625 -12.4375 C 15.53125 -12.4375 14.691406 -12.039062 14.046875 -11.25 C 13.410156 -10.457031 13.09375 -9.601562 13.09375 -8.6875 C 13.09375 -8.101562 13.226562 -7.625 13.5 -7.25 C 13.78125 -6.882812 14.175781 -6.703125 14.6875 -6.703125 C 15.164062 -6.703125 15.6875 -6.894531 16.25 -7.28125 C 16.820312 -7.664062 17.234375 -8.242188 17.484375 -9.015625 L 18.640625 -12.265625 C 18.015625 -12.378906 17.320312 -12.4375 16.5625 -12.4375 Z M 16.5625 -12.4375 "/></g></g></g></svg>